<mxfile host="app.diagrams.net" modified="2020-09-06T21:06:19.206Z" agent="5.0 (Windows)" etag="NChQv1VS7SmpT8kU2SRq" version="13.6.6" type="gitlab">
  <diagram id="VCCEHMZqeCSB69VW6X31" name="Page-1">
    <mxGraphModel dx="1191" dy="811" grid="1" gridSize="10" guides="1" tooltips="1" connect="1" arrows="1" fold="1" page="1" pageScale="1" pageWidth="850" pageHeight="1100" math="0" shadow="0">
      <root>
        <mxCell id="0" />
        <mxCell id="1" parent="0" />
        <mxCell id="MClPuhdJ_zhgaONTGBiV-10" value="" style="edgeStyle=orthogonalEdgeStyle;rounded=0;orthogonalLoop=1;jettySize=auto;html=1;entryX=0.5;entryY=1;entryDx=0;entryDy=0;" parent="1" source="6OwT0yKRw8m8dUTK9aqE-2" target="MClPuhdJ_zhgaONTGBiV-3" edge="1">
          <mxGeometry relative="1" as="geometry">
            <mxPoint x="452.5" y="140" as="targetPoint" />
            <Array as="points">
              <mxPoint x="268" y="200" />
              <mxPoint x="268" y="200" />
            </Array>
          </mxGeometry>
        </mxCell>
        <mxCell id="6OwT0yKRw8m8dUTK9aqE-2" value="" style="rounded=0;whiteSpace=wrap;html=1;" parent="1" vertex="1">
          <mxGeometry x="155" y="320" width="595" height="280" as="geometry" />
        </mxCell>
        <mxCell id="6OwT0yKRw8m8dUTK9aqE-7" value="&lt;font style=&quot;font-size: 16px&quot; face=&quot;Georgia&quot;&gt;Germination &amp;amp; Selection&lt;/font&gt;" style="edgeStyle=orthogonalEdgeStyle;rounded=0;orthogonalLoop=1;jettySize=auto;html=1;entryX=0;entryY=0.5;entryDx=0;entryDy=0;exitX=1;exitY=0.5;exitDx=0;exitDy=0;" parent="1" source="6OwT0yKRw8m8dUTK9aqE-27" target="6OwT0yKRw8m8dUTK9aqE-4" edge="1">
          <mxGeometry x="0.3912" relative="1" as="geometry">
            <mxPoint x="292.97000000000025" y="540" as="sourcePoint" />
            <mxPoint x="477.97" y="475" as="targetPoint" />
            <Array as="points">
              <mxPoint x="282.97" y="485" />
              <mxPoint x="252.97" y="485" />
              <mxPoint x="252.97" y="475" />
            </Array>
            <mxPoint as="offset" />
          </mxGeometry>
        </mxCell>
        <mxCell id="6OwT0yKRw8m8dUTK9aqE-10" value="&lt;font style=&quot;font-size: 16px&quot; face=&quot;Georgia&quot;&gt;Growth&lt;/font&gt;" style="edgeStyle=orthogonalEdgeStyle;rounded=0;orthogonalLoop=1;jettySize=auto;html=1;entryX=0.5;entryY=1;entryDx=0;entryDy=0;" parent="1" source="6OwT0yKRw8m8dUTK9aqE-4" target="6OwT0yKRw8m8dUTK9aqE-4" edge="1">
          <mxGeometry relative="1" as="geometry">
            <mxPoint x="717.97" y="475" as="targetPoint" />
            <Array as="points">
              <mxPoint x="638" y="430" />
              <mxPoint x="710" y="430" />
              <mxPoint x="710" y="520" />
              <mxPoint x="638" y="520" />
            </Array>
          </mxGeometry>
        </mxCell>
        <mxCell id="6OwT0yKRw8m8dUTK9aqE-4" value="" style="ellipse;whiteSpace=wrap;html=1;aspect=fixed;fillColor=#008a00;strokeColor=#005700;fontColor=#ffffff;" parent="1" vertex="1">
          <mxGeometry x="612.97" y="450" width="50" height="50" as="geometry" />
        </mxCell>
        <mxCell id="6OwT0yKRw8m8dUTK9aqE-11" value="&lt;div style=&quot;font-size: 16px&quot;&gt;&lt;font style=&quot;font-size: 16px&quot; face=&quot;Georgia&quot;&gt;Min. 100 strains&lt;br&gt;&lt;/font&gt;&lt;/div&gt;" style="text;html=1;align=center;verticalAlign=middle;resizable=0;points=[];autosize=1;" parent="1" vertex="1">
          <mxGeometry x="202.97000000000003" y="545" width="130" height="20" as="geometry" />
        </mxCell>
        <mxCell id="MClPuhdJ_zhgaONTGBiV-19" value="" style="edgeStyle=orthogonalEdgeStyle;rounded=0;orthogonalLoop=1;jettySize=auto;html=1;entryX=0.79;entryY=1.013;entryDx=0;entryDy=0;entryPerimeter=0;" parent="1" source="6OwT0yKRw8m8dUTK9aqE-23" target="6OwT0yKRw8m8dUTK9aqE-2" edge="1">
          <mxGeometry relative="1" as="geometry">
            <mxPoint x="625" y="634.9999999999998" as="targetPoint" />
          </mxGeometry>
        </mxCell>
        <mxCell id="6OwT0yKRw8m8dUTK9aqE-23" value="&lt;font style=&quot;font-size: 16px&quot; face=&quot;Georgia&quot;&gt;Fluidic System&lt;/font&gt;" style="whiteSpace=wrap;html=1;aspect=fixed;" parent="1" vertex="1">
          <mxGeometry x="560" y="730" width="130" height="130" as="geometry" />
        </mxCell>
        <mxCell id="MClPuhdJ_zhgaONTGBiV-24" value="" style="edgeStyle=orthogonalEdgeStyle;rounded=0;orthogonalLoop=1;jettySize=auto;html=1;entryX=0.19;entryY=1.009;entryDx=0;entryDy=0;entryPerimeter=0;" parent="1" source="6OwT0yKRw8m8dUTK9aqE-25" target="6OwT0yKRw8m8dUTK9aqE-2" edge="1">
          <mxGeometry relative="1" as="geometry">
            <mxPoint x="267.97" y="635" as="targetPoint" />
            <Array as="points" />
          </mxGeometry>
        </mxCell>
        <mxCell id="6OwT0yKRw8m8dUTK9aqE-25" value="&lt;font style=&quot;font-size: 16px&quot; face=&quot;Georgia&quot;&gt;Temperature Control System&lt;/font&gt;" style="whiteSpace=wrap;html=1;aspect=fixed;" parent="1" vertex="1">
          <mxGeometry x="202.97" y="730" width="130" height="130" as="geometry" />
        </mxCell>
        <mxCell id="6OwT0yKRw8m8dUTK9aqE-27" value="&lt;font style=&quot;font-size: 16px&quot; face=&quot;Georgia&quot;&gt;Biomolecular System&lt;/font&gt;" style="whiteSpace=wrap;html=1;aspect=fixed;" parent="1" vertex="1">
          <mxGeometry x="202.97" y="410" width="130" height="130" as="geometry" />
        </mxCell>
        <mxCell id="6OwT0yKRw8m8dUTK9aqE-28" value="&lt;div style=&quot;font-size: 16px&quot;&gt;&lt;font face=&quot;Georgia&quot;&gt;Microfluidic System&lt;font style=&quot;font-size: 16px&quot;&gt;&lt;br&gt;&lt;/font&gt;&lt;/font&gt;&lt;/div&gt;" style="text;html=1;align=center;verticalAlign=middle;resizable=0;points=[];autosize=1;" parent="1" vertex="1">
          <mxGeometry x="387.5" y="350" width="160" height="20" as="geometry" />
        </mxCell>
        <mxCell id="MClPuhdJ_zhgaONTGBiV-12" value="" style="edgeStyle=orthogonalEdgeStyle;rounded=0;orthogonalLoop=1;jettySize=auto;html=1;entryX=0;entryY=0.5;entryDx=0;entryDy=0;" parent="1" source="MClPuhdJ_zhgaONTGBiV-1" target="MClPuhdJ_zhgaONTGBiV-2" edge="1">
          <mxGeometry relative="1" as="geometry">
            <mxPoint x="945" y="125" as="targetPoint" />
          </mxGeometry>
        </mxCell>
        <mxCell id="MClPuhdJ_zhgaONTGBiV-1" value="&lt;font style=&quot;font-size: 16px&quot; face=&quot;Georgia&quot;&gt;Storage&lt;/font&gt;" style="whiteSpace=wrap;html=1;aspect=fixed;" parent="1" vertex="1">
          <mxGeometry x="387.5" y="70" width="130" height="130" as="geometry" />
        </mxCell>
        <mxCell id="MClPuhdJ_zhgaONTGBiV-2" value="&lt;font style=&quot;font-size: 16px&quot; face=&quot;Georgia&quot;&gt;Compression&lt;/font&gt;" style="whiteSpace=wrap;html=1;aspect=fixed;" parent="1" vertex="1">
          <mxGeometry x="560" y="70" width="130" height="130" as="geometry" />
        </mxCell>
        <mxCell id="MClPuhdJ_zhgaONTGBiV-5" value="" style="edgeStyle=orthogonalEdgeStyle;rounded=0;orthogonalLoop=1;jettySize=auto;html=1;entryX=0;entryY=0.5;entryDx=0;entryDy=0;" parent="1" source="MClPuhdJ_zhgaONTGBiV-3" target="MClPuhdJ_zhgaONTGBiV-1" edge="1">
          <mxGeometry relative="1" as="geometry">
            <mxPoint x="680" y="125" as="targetPoint" />
          </mxGeometry>
        </mxCell>
        <mxCell id="MClPuhdJ_zhgaONTGBiV-3" value="&lt;font style=&quot;font-size: 16px&quot; face=&quot;Georgia&quot;&gt;Imaging System&lt;/font&gt;" style="whiteSpace=wrap;html=1;aspect=fixed;" parent="1" vertex="1">
          <mxGeometry x="202.97" y="70" width="130" height="130" as="geometry" />
        </mxCell>
      </root>
    </mxGraphModel>
  </diagram>
</mxfile>
